<svg width="68" height="68" viewBox="0 0 68 68" fill="none" xmlns="http://www.w3.org/2000/svg">
<g id="Group 9124">
<rect id="Rectangle 205" width="68" height="68" rx="12" fill="url(#paint0_linear_319_1963)"/>
<g id="Group">
<path id="Vector" d="M40.467 18H27.533C22.2765 18 18 22.2765 18 27.533V40.467C18 45.7235 22.2765 50 27.533 50H40.467C45.7235 50 50 45.7235 50 40.467V27.533C49.9999 22.2765 45.7235 18 40.467 18ZM46.7808 40.467C46.7808 43.954 43.954 46.7808 40.467 46.7808H27.533C24.046 46.7808 21.2192 43.954 21.2192 40.467V27.533C21.2192 24.0459 24.046 21.2192 27.533 21.2192H40.467C43.954 21.2192 46.7808 24.0459 46.7808 27.533V40.467Z" fill="white"/>
<path id="Vector_2" d="M34.0029 25.7236C29.4393 25.7236 25.7266 29.4364 25.7266 33.9999C25.7266 38.5634 29.4393 42.2763 34.0029 42.2763C38.5665 42.2763 42.2792 38.5635 42.2792 33.9999C42.2792 29.4363 38.5665 25.7236 34.0029 25.7236ZM34.0029 39.0571C31.2099 39.0571 28.9458 36.793 28.9458 34C28.9458 31.207 31.21 28.9428 34.0029 28.9428C36.7959 28.9428 39.06 31.207 39.06 34C39.06 36.7929 36.7958 39.0571 34.0029 39.0571Z" fill="white"/>
<path id="Vector_3" d="M42.2957 27.769C43.391 27.769 44.2789 26.8811 44.2789 25.7858C44.2789 24.6905 43.391 23.8026 42.2957 23.8026C41.2004 23.8026 40.3125 24.6905 40.3125 25.7858C40.3125 26.8811 41.2004 27.769 42.2957 27.769Z" fill="white"/>
</g>
</g>
<defs>
<linearGradient id="paint0_linear_319_1963" x1="34" y1="447.536" x2="34" y2="-95.2199" gradientUnits="userSpaceOnUse">
<stop offset="0.690984" stop-color="#E09B3D"/>
<stop offset="0.724149" stop-color="#C74C4D"/>
<stop offset="0.763761" stop-color="#C21975"/>
<stop offset="0.830089" stop-color="#7024C4"/>
</linearGradient>
</defs>
</svg>
