<svg width="56" height="56" viewBox="0 0 56 56" fill="none" xmlns="http://www.w3.org/2000/svg">
<g id="OK">
<path id="back" d="M0 28C0 12.536 12.536 0 28 0C43.464 0 56 12.536 56 28C56 43.464 43.464 56 28 56C12.536 56 0 43.464 0 28Z" fill="#F68634"/>
<path id="Shape" d="M31.0302 34.347L35.2146 38.3866C36.0718 39.2124 36.0718 40.5534 35.2146 41.38C34.3583 42.2066 32.9704 42.2066 32.1149 41.38L28.0008 37.4105L23.8902 41.38C23.4616 41.7929 22.9 41.9996 22.3384 41.9996C21.7776 41.9996 21.2169 41.7929 20.7883 41.38C19.932 40.5534 19.932 39.2132 20.7874 38.3866L24.9723 34.347C23.4486 34.012 21.9792 33.4292 20.6257 32.6095C19.6014 31.9861 19.2938 30.68 19.9391 29.6905C20.5827 28.6996 21.9362 28.4013 22.9623 29.0247C26.0266 30.8854 29.9741 30.8858 33.0402 29.0247C34.0663 28.4013 35.4193 28.6996 36.0642 29.6905C36.7096 30.6792 36.401 31.9861 35.3768 32.6095C34.0233 33.4301 32.5538 34.012 31.0302 34.347Z" fill="white"/>
<path id="Combined Shape" fill-rule="evenodd" clip-rule="evenodd" d="M20.4922 21.2258C20.4922 25.2093 23.8494 28.4495 27.9774 28.4495C32.1063 28.4495 35.4627 25.2093 35.4627 21.2258C35.4627 17.2411 32.1063 14 27.9774 14C23.8494 14 20.4922 17.2411 20.4922 21.2258ZM31.0767 21.2258C31.0767 19.5761 29.6865 18.2346 27.9774 18.2346C26.2697 18.2346 24.8782 19.5761 24.8782 21.2258C24.8782 22.8743 26.2697 24.2167 27.9774 24.2167C29.6865 24.2167 31.0767 22.8743 31.0767 21.2258Z" fill="white"/>
</g>
</svg>
