<svg width="59" height="59" viewBox="0 0 59 59" fill="none" xmlns="http://www.w3.org/2000/svg">
<g id="VK">
<path id="Path" fill-rule="evenodd" clip-rule="evenodd" d="M20.4439 0H38.5561C55.0861 0 59 3.9139 59 20.4439V38.5561C59 55.0861 55.0861 59 38.5561 59H20.4439C3.9139 59 0 55.0861 0 38.5561V20.4439C0 3.9139 3.9139 0 20.4439 0Z" fill="#4680C2"/>
<path id="Path_2" fill-rule="evenodd" clip-rule="evenodd" d="M48.2255 18.8322C48.5169 17.9163 48.2255 17.25 46.9348 17.25H42.6461C41.5635 17.25 41.0639 17.8329 40.7725 18.4576C40.7725 18.4576 38.5656 23.7871 35.4845 27.2429C34.4851 28.2422 34.0272 28.5753 33.486 28.5753C33.1944 28.5753 32.8197 28.2422 32.8197 27.3263V18.7906C32.8197 17.708 32.4866 17.2084 31.5705 17.2084H24.8254C24.1592 17.2084 23.7428 17.708 23.7428 18.2077C23.7428 19.2487 25.2834 19.4984 25.4499 22.413V28.7419C25.4499 30.116 25.2001 30.3657 24.6588 30.3657C23.2015 30.3657 19.6624 24.9945 17.5389 18.8739C17.1224 17.6664 16.7061 17.2084 15.6236 17.2084H11.2932C10.0441 17.2084 9.83594 17.7914 9.83594 18.4159C9.83594 19.5401 11.2932 25.2028 16.6228 32.6975C20.162 37.8188 25.2001 40.5668 29.7386 40.5668C32.4866 40.5668 32.8197 39.9423 32.8197 38.9014V35.0292C32.8197 33.78 33.0695 33.5719 33.9439 33.5719C34.5685 33.5719 35.6927 33.9049 38.2325 36.3615C41.1471 39.2761 41.6468 40.6085 43.2706 40.6085H47.5593C48.8084 40.6085 49.3914 39.984 49.0583 38.7764C48.6835 37.569 47.2679 35.8203 45.4358 33.7383C44.4365 32.5726 42.9375 31.2818 42.4795 30.6572C41.855 29.8245 42.0215 29.4914 42.4795 28.7419C42.438 28.7419 47.6842 21.3305 48.2255 18.8322Z" fill="white"/>
</g>
</svg>
