<svg width="68" height="68" viewBox="0 0 68 68" fill="none" xmlns="http://www.w3.org/2000/svg">
<g id="Group 9125">
<rect id="Rectangle 204" width="68" height="68" rx="12" fill="#FF0000"/>
<g id="Youtube">
<path id="Subtract" fill-rule="evenodd" clip-rule="evenodd" d="M47.7663 21.7782C49.3236 22.2064 50.55 23.4681 50.9662 25.0704C51.7225 27.9742 51.7225 34.0332 51.7225 34.0332C51.7225 34.0332 51.7225 40.092 50.9662 42.9961C50.55 44.5983 49.3236 45.86 47.7663 46.2884C44.9443 47.0664 33.6269 47.0664 33.6269 47.0664C33.6269 47.0664 22.3095 47.0664 19.4872 46.2884C17.9299 45.86 16.7036 44.5983 16.2874 42.9961C15.5312 40.092 15.5312 34.0332 15.5312 34.0332C15.5312 34.0332 15.5312 27.9742 16.2874 25.0704C16.7036 23.4681 17.9299 22.2064 19.4872 21.7782C22.3095 21 33.6269 21 33.6269 21C33.6269 21 44.9443 21 47.7663 21.7782ZM35.0364 31.9404C32.947 30.6318 30.2339 32.1338 30.2339 34.5992C30.2339 37.0646 32.9469 38.5666 35.0363 37.2581C36.9991 36.0289 36.9991 33.1697 35.0364 31.9404Z" fill="white"/>
</g>
</g>
</svg>
